<mxfile host="app.diagrams.net" modified="2024-01-19T02:40:30.750Z" agent="Mozilla/5.0 (Macintosh; Intel Mac OS X 10_15_7) AppleWebKit/537.36 (KHTML, like Gecko) Chrome/120.0.0.0 Safari/537.36" version="22.1.21" etag="tmBqe7Xgc8GqnL2sSU9a" type="github">
  <diagram name="Page-1" id="jVXADNFvrzDiACQ3duJ6">
    <mxGraphModel>
      <root>
        <mxCell id="0" />
        <mxCell id="1" parent="0" />
      </root>
    </mxGraphModel>
  </diagram>
</mxfile>
